Coordinates
version=1
nRows=11
nColumns=40
inDegrees=yes

Units are S.I. units (second, meters, Newtons, ...)
If the header above contains a line with 'inDegrees', this indicates whether rotational values are in degrees (yes) or radians (no).

endheader
time	pelvis_tilt	pelvis_list	pelvis_rotation	pelvis_tx	pelvis_ty	pelvis_tz	hip_flexion_r	hip_adduction_r	hip_rotation_r	knee_angle_r	knee_angle_r_beta	ankle_angle_r	subtalar_angle_r	mtp_angle_r	hip_flexion_l	hip_adduction_l	hip_rotation_l	knee_angle_l	knee_angle_l_beta	ankle_angle_l	subtalar_angle_l	mtp_angle_l	lumbar_extension	lumbar_bending	lumbar_rotation	arm_flex_r	arm_add_r	arm_rot_r	elbow_flex_r	pro_sup_r	wrist_flex_r	wrist_dev_r	arm_flex_l	arm_add_l	arm_rot_l	elbow_flex_l	pro_sup_l	wrist_flex_l	wrist_dev_l
      2.60000000	     -1.74014924	    -12.67114865	     -0.12646265	     -0.24955535	      1.07270280	     -1.04172197	     38.44794787	     -0.25775609	     -2.83308476	    119.34499092	      2.08296304	     -8.55265898	      0.00000000	      0.00000000	     13.92111113	     -8.84484750	     -4.18257391	     25.10328520	      0.43813498	      7.21146793	      0.00000000	      0.00000000	     -2.42295458	     10.04943922	     -1.97638870	     88.22019012	    -12.93466363	     45.72908707	     26.66792189	     86.25493801	      0.00000000	      0.00000000	     89.62740817	    -20.63263719	     47.32384814	     29.07569189	     85.44321923	      0.00000000	      0.00000000
      2.60500000	     -1.75435938	    -12.51584013	     -0.15521463	     -0.24947737	      1.07257592	     -1.04205728	     38.30607838	     -0.47002487	     -2.74335845	    119.30950303	      2.08234366	     -8.55089220	      0.00000000	      0.00000000	     13.94584093	     -8.66800854	     -4.24940278	     25.15001228	      0.43895052	      7.15051731	      0.00000000	      0.00000000	     -2.43081345	      9.87561533	     -1.93709031	     88.29446064	    -13.02499280	     46.37676287	     26.74242741	     85.05246513	      0.00000000	      0.00000000	     89.64522989	    -20.63062681	     48.00762163	     29.05524740	     83.98226346	      0.00000000	      0.00000000
      2.61000000	     -1.79539891	    -12.46160999	     -0.15595141	     -0.24958484	      1.07240436	     -1.04213558	     38.21975459	     -0.57291371	     -2.78207635	    119.25415425	      2.08137764	     -8.79949738	      0.00000000	      0.00000000	     14.06082611	     -8.62441150	     -4.30025934	     25.26698859	      0.44099214	      7.14071076	      0.00000000	      0.00000000	     -2.45122597	      9.79078764	     -1.95997292	     88.29622022	    -12.95573683	     45.85426774	     26.71609109	     86.18355080	      0.00000000	      0.00000000	     89.63287351	    -20.65076052	     47.25872151	     29.08930552	     85.26297997	      0.00000000	      0.00000000
      2.61500000	     -1.90381844	    -12.46469485	     -0.17484883	     -0.24974578	      1.07204905	     -1.04217859	     38.21208965	     -0.60093868	     -2.82688770	    119.21821785	      2.08075043	     -8.85041786	      0.00000000	      0.00000000	     14.30157425	     -8.65613263	     -4.34045024	     25.48457654	      0.44478977	      7.16856909	      0.00000000	      0.00000000	     -2.38695367	      9.77387790	     -1.94498075	     88.35282532	    -13.01331331	     46.09994684	     26.80340165	     85.68142480	      0.00000000	      0.00000000	     89.64789555	    -20.67499954	     47.60555868	     29.12937748	     84.65958874	      0.00000000	      0.00000000
      2.62000000	     -2.10891421	    -12.56224408	     -0.15537544	     -0.25014723	      1.07150970	     -1.04200890	     38.31930141	     -0.55044187	     -3.02182698	    119.17139314	      2.07993318	     -8.92734118	      0.00000000	      0.00000000	     14.71277071	     -8.79782653	     -4.31346055	     25.74902300	      0.44940523	      7.18203293	      0.00000000	      0.00000000	     -2.23502136	      9.83849792	     -1.99596696	     88.34904316	    -12.97431420	     45.68085853	     26.77037363	     86.38431375	      0.00000000	      0.00000000	     89.64757302	    -20.61000302	     47.15781662	     29.06475857	     85.27043238	      0.00000000	      0.00000000
      2.62500000	     -2.06584221	    -12.44549663	     -0.18660353	     -0.25002852	      1.07150649	     -1.04224619	     38.08511292	     -0.69889846	     -2.96591212	    119.10617123	      2.07879485	     -8.95640118	      0.00000000	      0.00000000	     14.65720517	     -8.67879843	     -4.41134952	     25.76746308	      0.44972707	      7.14919038	      0.00000000	      0.00000000	     -2.32766942	      9.70759720	     -1.97809029	     88.37474567	    -12.93617592	     45.68344693	     26.71650732	     86.32680310	      0.00000000	      0.00000000	     89.65070770	    -20.64837382	     47.14548827	     29.07466792	     85.36286919	      0.00000000	      0.00000000
      2.63000000	     -2.32029521	    -12.56494436	     -0.19959523	     -0.25050530	      1.07081584	     -1.04197912	     38.26927647	     -0.59271782	     -3.14402741	    119.07259145	      2.07820877	     -9.07684305	      0.00000000	      0.00000000	     15.17081878	     -8.85505527	     -4.33834342	     26.14351924	      0.45629049	      7.27356031	      0.00000000	      0.00000000	     -2.12235905	      9.79980324	     -1.99849142	     88.41233624	    -12.94838596	     45.64447802	     26.73342323	     86.39108426	      0.00000000	      0.00000000	     89.65590080	    -20.63856386	     47.08419375	     29.07684851	     85.33526524	      0.00000000	      0.00000000
      2.63500000	     -2.44253577	    -12.51185495	     -0.21450908	     -0.25078582	      1.07042049	     -1.04204295	     38.26823454	     -0.66752267	     -3.16527556	    119.03184726	      2.07749765	     -9.17273851	      0.00000000	      0.00000000	     15.44433897	     -8.82429522	     -4.37198275	     26.37236226	      0.46028455	      7.21784790	      0.00000000	      0.00000000	     -2.05792173	      9.72868793	     -2.00161146	     88.46948283	    -12.93939928	     45.72093166	     26.71271913	     86.26251995	      0.00000000	      0.00000000	     89.66095285	    -20.68624491	     47.07237260	     29.14179202	     85.27085010	      0.00000000	      0.00000000
      2.64000000	     -2.59282544	    -12.46499602	     -0.24012281	     -0.25103898	      1.06994331	     -1.04206247	     38.28167815	     -0.74221013	     -3.20495333	    118.99631909	      2.07687757	     -9.18185084	      0.00000000	      0.00000000	     15.73751581	     -8.79362948	     -4.41986003	     26.57754442	      0.46386566	      7.22117945	      0.00000000	      0.00000000	     -1.95678464	      9.66146571	     -2.01421387	     88.54270043	    -12.94934055	     46.01770903	     26.71645923	     85.84402402	      0.00000000	      0.00000000	     89.67582409	    -20.76661949	     47.32571413	     29.24757714	     84.75859951	      0.00000000	      0.00000000
      2.64500000	     -2.68611980	    -12.46727488	     -0.21129553	     -0.25130772	      1.06951736	     -1.04221491	     38.21924571	     -0.80962187	     -3.29902788	    118.94405419	      2.07596537	     -9.15834149	      0.00000000	      0.00000000	     16.03056011	     -8.80492103	     -4.36168191	     26.90141461	      0.46951826	      7.22489749	      0.00000000	      0.00000000	     -1.90949300	      9.67721183	     -2.05779818	     88.67309806	    -12.94586958	     46.36648928	     26.66043982	     85.55892060	      0.00000000	      0.00000000	     89.68256487	    -20.79909836	     47.51486739	     29.20547292	     84.55960691	      0.00000000	      0.00000000
      2.65000000	     -2.80581972	    -12.45633412	     -0.23497287	     -0.25152600	      1.06913763	     -1.04210673	     38.20306252	     -0.78192292	     -3.32754653	    118.89488313	      2.07510717	     -9.26597932	      0.00000000	      0.00000000	     16.30539500	     -8.81972966	     -4.36463767	     27.15532826	      0.47394989	      7.22395160	      0.00000000	      0.00000000	     -1.84296253	      9.62116787	     -2.02799166	     88.68683882	    -12.97935326	     46.30076260	     26.72971295	     85.30362314	      0.00000000	      0.00000000	     89.69111504	    -20.78148751	     47.46812637	     29.26191085	     84.36988547	      0.00000000	      0.00000000
